<?xml version="1.0" encoding="UTF-8" standalone="no"?>
<!-- Created with Inkscape (http://www.inkscape.org/) -->

<svg
   xmlns:dc="http://purl.org/dc/elements/1.1/"
   xmlns:cc="http://creativecommons.org/ns#"
   xmlns:rdf="http://www.w3.org/1999/02/22-rdf-syntax-ns#"
   xmlns:svg="http://www.w3.org/2000/svg"
   xmlns="http://www.w3.org/2000/svg"
   xmlns:sodipodi="http://sodipodi.sourceforge.net/DTD/sodipodi-0.dtd"
   xmlns:inkscape="http://www.inkscape.org/namespaces/inkscape"
   width="744"
   height="744"
   id="svg2"
   version="1.1"
   inkscape:version="0.48.3.1 r9886"
   sodipodi:docname="riverside-io.png">
  <defs
     id="defs4" />
  <sodipodi:namedview
     id="base"
     pagecolor="#ffffff"
     bordercolor="#666666"
     borderopacity="1.0"
     inkscape:pageopacity="0.0"
     inkscape:pageshadow="2"
     inkscape:zoom="0.98994949"
     inkscape:cx="196.203"
     inkscape:cy="358.37559"
     inkscape:document-units="px"
     inkscape:current-layer="layer1"
     showgrid="false"
     showguides="false"
     inkscape:guide-bbox="true"
     inkscape:window-width="1839"
     inkscape:window-height="1056"
     inkscape:window-x="81"
     inkscape:window-y="24"
     inkscape:window-maximized="1">
    <sodipodi:guide
       orientation="0,1"
       position="-223.24371,441.43666"
       id="guide3067" />
    <sodipodi:guide
       orientation="0,1"
       position="98.994949,469.72093"
       id="guide3069" />
    <sodipodi:guide
       orientation="0,1"
       position="-37.375644,495.9849"
       id="guide3071" />
    <sodipodi:guide
       orientation="0,1"
       position="29.294424,523.25902"
       id="guide3073" />
    <sodipodi:guide
       orientation="0,1"
       position="-82.832509,551.54329"
       id="guide3075" />
    <sodipodi:guide
       orientation="0,1"
       position="-245.46707,579.82756"
       id="guide3077" />
    <sodipodi:guide
       orientation="0,1"
       position="-120.20815,608.11183"
       id="guide3079" />
    <sodipodi:guide
       orientation="0,1"
       position="496.99505,634.3758"
       id="guide3081" />
    <sodipodi:guide
       orientation="0,1"
       position="-139.40105,662.66007"
       id="guide3083" />
    <sodipodi:guide
       orientation="0,1"
       position="-91.923882,689.93419"
       id="guide3085" />
    <sodipodi:guide
       orientation="0,1"
       position="30.304576,718.21846"
       id="guide3087" />
    <sodipodi:guide
       orientation="0,1"
       position="18.182746,747.51288"
       id="guide3089" />
    <sodipodi:guide
       orientation="0,1"
       position="2.0203051,775.79715"
       id="guide3091" />
    <sodipodi:guide
       orientation="0,1"
       position="8.0812204,802.06112"
       id="guide3093" />
    <sodipodi:guide
       orientation="0,1"
       position="19.192898,414.16254"
       id="guide3095" />
    <sodipodi:guide
       orientation="0,1"
       position="-219.2031,386.88842"
       id="guide3097" />
    <sodipodi:guide
       orientation="0,1"
       position="-79.802051,360.62446"
       id="guide3099" />
    <sodipodi:guide
       orientation="0,1"
       position="-35.355339,831.35554"
       id="guide3101" />
    <sodipodi:guide
       orientation="0,1"
       position="-81.822356,859.63982"
       id="guide3103" />
    <sodipodi:guide
       orientation="0,1"
       position="-87.883271,887.92409"
       id="guide3105" />
    <sodipodi:guide
       orientation="0,1"
       position="-142.43151,916.20836"
       id="guide3107" />
    <sodipodi:guide
       orientation="0,1"
       position="-116.16754,943.48248"
       id="guide3109" />
    <sodipodi:guide
       orientation="0,1"
       position="-151.52288,970.7566"
       id="guide3111" />
    <sodipodi:guide
       orientation="0,1"
       position="-166.67517,1000.051"
       id="guide3113" />
    <sodipodi:guide
       orientation="0,1"
       position="-228.29448,334.36049"
       id="guide3115" />
    <sodipodi:guide
       orientation="1,0"
       position="356.58385,943.48248"
       id="guide3117" />
    <sodipodi:guide
       orientation="1,0"
       position="382.84781,381.83766"
       id="guide3119" />
    <sodipodi:guide
       orientation="1,0"
       position="325.26912,579.82756"
       id="guide3121" />
    <sodipodi:guide
       orientation="1,0"
       position="300.01531,469.72093"
       id="guide3123" />
    <sodipodi:guide
       orientation="1,0"
       position="270.72088,775.79715"
       id="guide3125" />
    <sodipodi:guide
       orientation="1,0"
       position="242.43661,579.82756"
       id="guide3127" />
    <sodipodi:guide
       orientation="1,0"
       position="216.17264,579.82756"
       id="guide3129" />
    <sodipodi:guide
       orientation="1,0"
       position="189.90868,718.21846"
       id="guide3131" />
    <sodipodi:guide
       orientation="1,0"
       position="412.14224,551.54329"
       id="guide3133" />
    <sodipodi:guide
       orientation="1,0"
       position="439.41636,469.72093"
       id="guide3135" />
    <sodipodi:guide
       orientation="1,0"
       position="468.71078,469.72093"
       id="guide3137" />
    <sodipodi:guide
       orientation="1,0"
       position="496.99505,441.43666"
       id="guide3139" />
    <sodipodi:guide
       orientation="1,0"
       position="524.26917,469.72093"
       id="guide3141" />
    <sodipodi:guide
       orientation="1,0"
       position="163.64471,441.43666"
       id="guide3143" />
    <sodipodi:guide
       orientation="1,0"
       position="553.56359,662.66007"
       id="guide3145" />
    <sodipodi:guide
       orientation="1,0"
       position="135.36044,608.11183"
       id="guide3147" />
    <sodipodi:guide
       orientation="1,0"
       position="580.83771,943.48248"
       id="guide3149" />
    <sodipodi:guide
       orientation="1,0"
       position="640.43671,916.20836"
       id="guide3151" />
    <sodipodi:guide
       orientation="1,0"
       position="610.13214,662.66007"
       id="guide3153" />
    <sodipodi:guide
       orientation="1,0"
       position="667.71083,747.51288"
       id="guide3155" />
    <sodipodi:guide
       orientation="1,0"
       position="698.01541,775.79715"
       id="guide3157" />
    <sodipodi:guide
       orientation="1,0"
       position="105.05586,718.21846"
       id="guide3159" />
    <sodipodi:guide
       orientation="1,0"
       position="73.741136,689.93419"
       id="guide3161" />
    <sodipodi:guide
       orientation="1,0"
       position="44.446712,689.93419"
       id="guide3163" />
    <inkscape:grid
       type="xygrid"
       id="grid3904"
       empspacing="5"
       visible="true"
       enabled="true"
       snapvisiblegridlinesonly="true" />
    <sodipodi:guide
       orientation="1,0"
       position="-77.781746,802.06112"
       id="guide4712" />
  </sodipodi:namedview>
  <metadata
     id="metadata7">
    <rdf:RDF>
      <cc:Work
         rdf:about="">
        <dc:format>image/svg+xml</dc:format>
        <dc:type
           rdf:resource="http://purl.org/dc/dcmitype/StillImage" />
        <dc:title></dc:title>
      </cc:Work>
    </rdf:RDF>
  </metadata>
  <g
     inkscape:label="Layer 1"
     inkscape:groupmode="layer"
     id="layer1"
     transform="translate(0,-308.36157)">
    <rect
       style="fill:#1e1e1e;fill-opacity:1"
       id="rect3029"
       width="30.304556"
       height="27.274097"
       x="327.26913"
       y="-928.19965"
       transform="scale(1,-1)" />
    <rect
       style="fill:#1e1e1e;fill-opacity:1"
       id="rect3029-7"
       width="29.294422"
       height="27.274097"
       x="384.84781"
       y="-928.19965"
       transform="scale(1,-1)" />
    <rect
       style="fill:#373737;fill-opacity:1"
       id="rect3029-7-7"
       width="29.294424"
       height="27.274097"
       x="357.5737"
       y="-928.19965"
       transform="scale(1,-1)" />
    <rect
       style="fill:#1e1e1e;fill-opacity:1"
       id="rect3173"
       width="26.263969"
       height="82.832512"
       x="165.64471"
       y="679.70215" />
    <rect
       style="fill:#000000;fill-opacity:1"
       id="rect3175"
       width="26.263964"
       height="84.852806"
       x="191.90868"
       y="594.8493" />
    <path
       id="rect3165-0"
       style="fill:#b3b3b3;fill-opacity:1"
       d="m 75.741135,846.37726 31.314725,0 0,109.09648 -31.314725,0 z m -29.294423,109.09649 452.548338,0 0,26.26398 -452.548338,0 z" />
    <path
       id="rect3169-8"
       style="fill:#939393;fill-opacity:1"
       d="m 107.05586,762.53467 30.30458,0 0,83.84266 -30.30458,0 z m 30.30458,83.84259 28.28427,0 0,26.26397 -28.28427,0 z m -30.30458,0 30.30458,0 0,109.09648 -30.30458,0 z" />
    <rect
       style="fill:#373737;fill-opacity:1"
       id="rect3175-9"
       width="26.263964"
       height="84.852806"
       x="165.64471"
       y="594.8493" />
    <rect
       style="fill:#4e4e4e;fill-opacity:1"
       id="rect3249"
       width="474.77173"
       height="28.284269"
       x="137.36044"
       y="566.56506" />
    <path
       id="rect3319"
       style="fill:#b3b3b3;fill-opacity:1"
       d="m 218.17264,819.10315 54.54823,0 0,27.27412 -54.54823,0 z m -26.26396,27.27411 135.36044,0 0,54.54824 -135.36044,0 z" />
    <path
       id="rect3323"
       style="fill:#939393;fill-opacity:1"
       d="m 327.26913,846.37726 57.57869,0 0,54.54824 -57.57869,0 z m -54.54824,-27.27411 84.85283,0 0,27.27412 -84.85283,0 z" />
    <path
       id="rect3359"
       style="fill:#626262;fill-opacity:1"
       d="m 470.71078,846.37732 28.28427,0 0,54.54824 -28.28427,0 z m -29.29443,-27.27417 29.29442,0 0,27.27412 -29.29442,0 z m 0,27.27411 29.29442,0 0,26.264 -29.29442,0 z" />
    <rect
       style="fill:#000000;fill-opacity:1"
       id="rect3369"
       width="29.29443"
       height="27.27412"
       x="272.72089"
       y="652.42798" />
    <rect
       style="fill:#000000;fill-opacity:1"
       id="rect3371"
       width="55.558392"
       height="28.284269"
       x="302.01532"
       y="624.14374" />
    <rect
       style="fill:#000000;fill-opacity:1"
       id="rect3373"
       width="56.56855"
       height="28.284269"
       x="384.84781"
       y="624.14374" />
    <rect
       style="fill:#000000;fill-opacity:1"
       id="rect3375"
       width="27.274111"
       height="29.29442"
       x="357.5737"
       y="594.8493" />
    <rect
       style="fill:#b3b3b3;fill-opacity:1"
       id="rect3377"
       width="27.274111"
       height="29.294397"
       x="357.5737"
       y="342.31119" />
    <rect
       style="fill:#b3b3b3;fill-opacity:1"
       id="rect3379"
       width="56.568562"
       height="27.27412"
       x="302.01532"
       y="398.8797" />
    <rect
       style="fill:#939393;fill-opacity:1"
       id="rect3381"
       width="54.548218"
       height="28.284281"
       x="272.72089"
       y="482.72235" />
    <rect
       style="fill:#500100;fill-opacity:1"
       id="rect3349-0-4"
       width="29.294428"
       height="2.3974606e-05"
       x="441.41635"
       y="-707.98639"
       transform="scale(1,-1)" />
    <path
       id="rect3335-1-5"
       style="fill:#373737;fill-opacity:1"
       d="m 272.72089,679.70215 29.29443,0 0,28.28427 -29.29443,0 z m 141.42135,28.28424 27.27411,0 0,26.26398 -27.27411,0 z m 27.27411,0 29.29442,0 0,54.54823 -29.29442,0 z m -114.14722,0 86.8731,0 0,26.26397 -86.8731,0 z m -25.25381,-28.28424 25.25381,0 0,54.54824 -25.25381,0 z" />
    <path
       id="rect3357-1-3"
       style="fill:#1e1e1e;fill-opacity:1"
       d="m 441.41635,679.70215 29.29443,0 0,28.28427 -29.29443,0 z m -83.84265,-55.55841 28.28427,0 0,28.28427 -28.28427,0 z m -55.55838,28.28424 25.25381,0 0,27.27412 -25.25381,0 z m 25.25381,0 114.14724,0 0,55.55839 -114.14724,0 z" />
    <rect
       style="fill:#000000;fill-opacity:1"
       id="rect3369-3"
       width="29.29443"
       height="27.27412"
       x="441.41635"
       y="652.42798" />
    <rect
       style="fill:#1e1e1e;fill-opacity:1"
       id="rect3173-4"
       width="26.263969"
       height="28.284262"
       x="191.90866"
       y="679.70215" />
    <path
       id="rect3632"
       style="fill:#939393;fill-opacity:1"
       d="m 358.58386,398.8797 55.55842,0 0,27.27411 -55.55842,0 z m -1.01016,-27.27411 27.27411,0 0,27.27412 -27.27411,0 z" />
    <rect
       style="fill:#626262;fill-opacity:1"
       id="rect3379-3-0-7"
       width="26.263952"
       height="28.284264"
       x="358.58386"
       y="454.43811" />
    <path
       id="rect3009-37"
       style="fill:#939393;fill-opacity:1;fill-rule:evenodd;stroke:none"
       d="m 498.99506,955.47375 201.02034,0 0,26.26396 -201.02034,0 z m -452.548348,26.26398 536.390988,0 0,26.26397 -536.390988,0 z" />
    <rect
       style="fill:#000000;fill-opacity:1"
       id="rect3175-3"
       width="27.274103"
       height="84.852806"
       x="555.5636"
       y="594.8493" />
    <rect
       style="fill:#373737;fill-opacity:1"
       id="rect3175-9-1"
       width="29.294415"
       height="113.13707"
       x="526.26917"
       y="594.8493" />
    <rect
       style="fill:#1e1e1e;fill-opacity:1"
       id="rect3173-6"
       width="28.263968"
       height="82.832512"
       x="583.86816"
       y="679.70215" />
    <path
       id="rect3173-9-7"
       style="fill:#4e4e4e;fill-opacity:1"
       d="m 555.58392,679.70215 28.28427,0 0,111.11678 -28.28427,0 z m 27.25379,302.03558 117.17769,0 0,26.26397 -117.17769,0 z m -225.26404,-470.73108 27.27413,0 0,29.29442 -27.27413,0 z m -84.85278,29.29438 339.41128,0 0,26.26396 -339.41128,0 z m 141.42135,-57.57868 56.56855,0 0,28.28428 -56.56855,0 z m -55.55838,-56.56854 26.26395,0 0,28.28427 -26.26395,0 z m 55.55838,-27.27411 27.27413,0 0,27.27412 -27.27413,0 z m 55.55838,391.93915 29.29443,0 0,28.28427 -29.29443,0 z m 29.29444,28.2843 28.28427,0 0,27.27412 -28.28427,0 z m -57.57871,-56.56848 57.57869,0 0,28.28427 -57.57869,0 z m 57.57871,83.84265 55.55841,0 0,54.54824 -55.55841,0 z m -196.97974,-112.12695 55.55839,0 0,28.28427 -55.55839,0 z m 168.69546,84.85278 28.28428,0 0,27.27412 -28.28428,0 z m -56.56854,-28.2843 56.56856,0 0,28.28427 -56.56856,0 z m 0,-28.28418 27.27412,0 0,28.28427 -27.27412,0 z m -56.56854,-28.2843 83.84266,0 0,28.28427 -83.84266,0 z m -84.85281,-26.26398 29.29442,0 0,54.54827 -29.29442,0 z m -28.28428,54.54828 57.57869,0 0,28.28427 -57.57869,0 z m 0,28.28418 28.28427,0 0,28.28427 -28.28427,0 z m 57.57871,-28.28418 112.12693,0 0,28.28427 -112.12693,0 z m 82.83249,28.28418 29.29443,0 0,28.28427 -29.29443,0 z m -247.48737,-111.1167 28.28427,0 0,82.83252 -28.28427,0 z m 28.28427,82.83252 26.26397,0 0,28.28427 -26.26397,0 z" />
    <rect
       style="fill:#4e4e4e;fill-opacity:1"
       id="rect3169-5"
       width="30.3046"
       height="83.842659"
       x="612.13214"
       y="762.53467" />
    <rect
       style="fill:#4e4e4e;fill-opacity:1"
       id="rect3165-4"
       width="27.274137"
       height="109.09648"
       x="642.43671"
       y="846.37726" />
    <path
       id="rect3331-0"
       style="fill:#737373;fill-opacity:1"
       d="m 441.41635,872.64124 29.29442,0 0,28.28431 -29.29442,0 z m -168.69546,-81.82239 112.12695,0 0,28.28427 -112.12695,0 z m 112.12692,55.55841 56.56855,0 0,54.54824 -56.56855,0 z m -27.27411,-27.27411 83.84266,0 0,27.27412 -83.84266,0 z m 254.55844,27.27411 30.3046,0 0,109.09648 -30.3046,0 z m -29.29443,-83.84259 29.29444,0 0,110.10658 -29.29444,0 z m -445.47727,-222.23364 135.36043,0 0,26.26396 -135.36043,0 z m 189.90866,-57.57868 86.87313,0 0,28.28428 -86.87313,0 z m -189.90866,279.81232 28.28427,0 0,83.84266 -28.28427,0 z" />
    <rect
       style="fill:#ffd800;fill-opacity:1;stroke:none"
       id="rect4674"
       width="35.355339"
       height="26.263981"
       x="-252.53813"
       y="388.87967" />
    <rect
       style="fill:#f0ad00;fill-opacity:1;stroke:none"
       id="rect4674-6"
       width="35.355339"
       height="26.263981"
       x="-252.53813"
       y="443.42795" />
    <rect
       style="fill:#b96a00;fill-opacity:1;stroke:none"
       id="rect4674-6-6"
       width="35.355339"
       height="26.263981"
       x="-252.53813"
       y="503.02692" />
    <rect
       style="fill:#993800;fill-opacity:1;stroke:none"
       id="rect4674-6-6-4"
       width="35.355339"
       height="26.263981"
       x="-252.53813"
       y="557.5752" />
    <rect
       style="fill:#782200;fill-opacity:1;stroke:none"
       id="rect4674-6-6-4-8"
       width="35.355339"
       height="26.263981"
       x="-252.53813"
       y="615.15387" />
    <rect
       style="fill:#500100;fill-opacity:1;stroke:none"
       id="rect4674-6-6-4-8-1"
       width="35.355339"
       height="26.263981"
       x="-252.53813"
       y="670.71228" />
    <rect
       style="fill:#3c0100;fill-opacity:1;stroke:none"
       id="rect4674-6-6-4-8-1-7"
       width="35.355339"
       height="26.263981"
       x="-252.53813"
       y="725.2605" />
    <rect
       style="fill:#000000;fill-opacity:1;stroke:none"
       id="rect4674-6-6-4-8-1-7-4"
       width="35.355339"
       height="26.263981"
       x="-252.53813"
       y="781.82898" />
    <rect
       style="fill:#b3b3b3;fill-opacity:1;stroke:none"
       id="rect4674-4"
       width="35.355339"
       height="26.263981"
       x="-128.30968"
       y="398.87973" />
    <rect
       style="fill:#939393;fill-opacity:1;stroke:none"
       id="rect4674-6-7"
       width="35.355339"
       height="26.263981"
       x="-128.30968"
       y="453.42795" />
    <rect
       style="fill:#737373;fill-opacity:1;stroke:none"
       id="rect4674-6-6-3"
       width="35.355339"
       height="26.263981"
       x="-128.30968"
       y="513.02698" />
    <rect
       style="fill:#626262;fill-opacity:1;stroke:none"
       id="rect4674-6-6-4-7"
       width="35.355339"
       height="26.263981"
       x="-128.30968"
       y="567.5752" />
    <rect
       style="fill:#4e4e4e;fill-opacity:1;stroke:none"
       id="rect4674-6-6-4-8-8"
       width="35.355339"
       height="26.263981"
       x="-128.30968"
       y="625.15387" />
    <rect
       style="fill:#373737;fill-opacity:1;stroke:none"
       id="rect4674-6-6-4-8-1-3"
       width="35.355339"
       height="26.263981"
       x="-128.30968"
       y="680.71228" />
    <rect
       style="fill:#1e1e1e;fill-opacity:1;stroke:none"
       id="rect4674-6-6-4-8-1-7-0"
       width="35.355339"
       height="26.263981"
       x="-128.30968"
       y="735.2605" />
    <rect
       style="fill:#000000;fill-opacity:1;stroke:none"
       id="rect4674-6-6-4-8-1-7-4-3"
       width="35.355339"
       height="26.263981"
       x="-128.30968"
       y="791.82904" />
  </g>
</svg>
